PathFileType	4	(X/Y/Z)	Patient4_TMGait_0pt6_02_left_46.trc.trc
DataRate	CameraRate	NumFrames	NumMarkers	Units	OrigDataRate	OrigDataStartFrame	OrigNumFrames
84.337349397591	84.337349397591	5	33	mm	84.337349397591	124	       141
Frame#	Time	Sacral			L.Shoulder			Chest			R.Shoulder			Neck			R.ASIS			L.ASIS			R.Thigh.Superior			R.Thigh.Lateral			R.Thigh.Inferior			R.Patella			L.Thigh.Superior			L.Thigh.Lateral			L.Thigh.Inferior			L.Patella			L.Shank.Superior			L.Shank.Lateral			L.Shank.Inferior			R.Shank.Superior			R.Shank.Lateral			R.Shank.Inferior			R.Heel			R.Midfoot.Superior			R.Midfoot.Lateral			R.Toe			L.Heel			L.Midfoot.Lateral			L.Midfoot.Superior			L.Toe			L.Elbow			L.Wrist			R.Elbow			R.Wrist			
		X1	Y1	Z1	X2	Y2	Z2	X3	Y3	Z3	X4	Y4	Z4	X5	Y5	Z5	X6	Y6	Z6	X7	Y7	Z7	X8	Y8	Z8	X9	Y9	Z9	X10	Y10	Z10	X11	Y11	Z11	X12	Y12	Z12	X13	Y13	Z13	X14	Y14	Z14	X15	Y15	Z15	X16	Y16	Z16	X17	Y17	Z17	X18	Y18	Z18	X19	Y19	Z19	X20	Y20	Z20	X21	Y21	Z21	X22	Y22	Z22	X23	Y23	Z23	X24	Y24	Z24	X25	Y25	Z25	X26	Y26	Z26	X27	Y27	Z27	X28	Y28	Z28	X29	Y29	Z29	X30	Y30	Z30	X31	Y31	Z31	X32	Y32	Z32	X33	Y33	Z33	

124	57.598428571429	878.200629205712	1005.830149542121	521.422232990484	1051.338767331223	1425.548992892132	329.260695494957	1170.739586595103	1349.890070459594	474.290682362849	1113.155038753149	1427.446631026230	655.303722901558	1070.465254309309	1484.160013076704	480.051608245469	1105.963168763152	930.508767632635	622.122140610095	1077.190355610438	949.640978617685	349.265062391558	1098.596610193640	717.092689095756	595.253943936365	993.052339033849	626.183407557081	658.841416149722	1049.817452468587	558.868530893932	577.185264109611	1027.327511058262	473.700601996198	580.571318098338	1150.073387529906	768.160234622113	386.162525777949	1104.291494046941	639.662664308707	306.991321316123	1204.553126036693	581.233540661575	373.719111895960	1229.500370778550	513.177058009092	370.965656829094	1210.998574742485	439.297970596971	359.165452639968	1140.474953870690	312.658532496642	306.441108466075	1220.525315675282	209.849052031595	364.596805932992	986.249861189222	391.437355156620	588.650714188684	899.886812407704	301.089889524100	652.926761994993	921.144231965648	201.190056832546	588.025096645798	763.904225650248	47.934295441107	559.247853967608	936.246560621597	97.143177623289	596.938302428582	845.790826512653	38.255769193839	634.225275137381	1054.271738643141	39.632560548072	627.266505854832	1126.009720364621	38.767566893790	399.006841221398	1202.533950765264	40.851422064859	321.418844490522	1277.666887449785	110.351521686983	347.884996142149	1409.629645342216	71.985972203663	325.585974749237	891.141339494973	1110.711267076059	228.873669703406	824.058962608013	864.356672428464	280.661570950465	1284.383541273470	1137.330640505327	765.891058601618	1513.463557525015	1169.183522250961	658.284197068870	
125	57.610285714286	880.175461849750	1004.342858245017	518.570377978434	1052.540218237292	1424.557844415145	327.063220123457	1171.690357336720	1349.259768943825	472.540169128885	1112.967098116956	1426.375790120304	653.459567426703	1070.933979221403	1483.159275409899	478.014472525121	1107.725055098382	929.285782022269	620.101997490599	1079.748633966624	948.364076850351	347.415134143236	1099.473508244329	715.694679138674	593.497634464945	993.047007349140	625.450245117521	657.096469449064	1049.519471469920	557.488254130533	575.800009639180	1026.168685230156	471.947596918093	579.127454037150	1152.006016381208	765.410408862597	383.784128648157	1103.338534176489	637.080443602306	306.267330707915	1204.006519849654	578.353035442341	372.216897741791	1227.344887204541	509.742770753956	370.384542918379	1208.725083691244	435.926492101921	358.744951939701	1137.008239752193	309.623943643513	307.168889228377	1216.171504243514	206.502351650435	365.529837446433	983.878185603256	390.330439775214	587.541592687491	896.216153214681	301.389937882134	652.272202098117	915.886702756480	200.998486305206	587.679508659025	756.858942412224	49.142728527405	559.519703137104	929.489662086201	97.302538071794	597.017769358290	838.775593524471	38.745712697995	634.272770550784	1047.234938412855	39.340098422984	627.325765294140	1119.189145959372	37.992211736368	400.984816197360	1195.371285771869	38.782172634401	322.920603072815	1272.223717151393	106.130082775385	349.506768235081	1403.448925181769	64.565710642606	326.463442948491	889.111275273280	1111.723152426486	227.818167706045	819.251397299554	866.459906938386	281.568822012137	1285.216153024907	1136.847484713479	763.706599396644	1512.564041499273	1176.422456118782	655.992346003933	
126	57.622142857143	881.989364853874	1003.222256360529	515.748602506298	1053.841251470589	1423.789122439836	324.798311488703	1172.752329692383	1348.762659576696	470.680283751702	1113.062669339635	1425.488580862859	651.565983076295	1071.645756337491	1482.409398756967	475.896473352980	1109.362335321881	928.246862896344	617.946614961282	1082.046171182216	947.427720275323	345.407874209736	1100.438560896084	714.540518545423	591.660454915462	993.278153497458	624.881904690987	655.271300611743	1049.625912979637	556.280184534394	574.398851982912	1025.539828896166	470.232839817818	577.759412267724	1153.989066390278	763.489325471653	381.264862760145	1102.848800686156	635.288167897802	305.368070121664	1203.979444778071	576.355188325427	370.536304220470	1225.795632580399	507.130502517377	369.676243687020	1206.956192611955	433.247876783912	358.243482594479	1134.028491599451	307.478802912024	307.326174249617	1211.740604569573	203.809522271809	366.160687438027	981.850109220668	389.336863639892	586.474804288119	892.801411895797	301.951530853966	651.620194158659	910.859523744550	201.038953871760	587.413187850988	749.894287342213	50.809709826116	559.847857871942	922.908545688163	97.536433737135	597.159859697591	831.826644317948	39.448194721331	634.346902190406	1040.242396192012	39.018678801748	627.393824777769	1111.919208701711	37.657487513750	402.306375630244	1187.893797612519	37.346782510755	323.902260152501	1266.308437174771	102.715563987693	350.782492545382	1396.889120116894	58.198302900236	327.184532513055	887.932850004936	1112.462577776758	226.618309237030	815.957780013479	868.053944314989	281.940690672323	1285.289968627440	1135.754449085457	761.697814792699	1510.991337945113	1182.285760902985	654.084480372167	
127	57.634000000000	883.622644783518	1002.544221729510	512.983887016734	1055.241605353579	1423.311925517104	322.496837512654	1173.924679286362	1348.437735609593	468.721091040461	1113.493369999024	1424.850443300462	649.626504214585	1072.626068562230	1481.967512898150	473.726453229313	1110.839118707258	927.474392694267	615.656714136099	1084.039825972255	946.883185865358	343.206135664561	1101.454293777783	713.702482311222	589.760642946050	993.744623256510	624.523964853794	653.397912512559	1050.159752365750	555.304778386998	573.018953937869	1025.507012132745	468.593842467466	576.562947895605	1155.967993987678	762.467120269242	378.653114056755	1102.851575849450	634.326138006006	304.250619220925	1204.373464481834	575.206290059644	368.678534703177	1224.783018935082	505.335093095757	368.792699163486	1205.633138976084	431.271603738213	357.638882312838	1131.533570594523	306.194817476170	306.903114967225	1207.307540856462	201.798655267155	366.486206590007	980.212572165551	388.502646840567	585.515474520427	889.666780667228	302.831422100430	650.996364304980	906.110091053878	201.363004536849	587.261002782639	743.047517406826	53.019316636941	560.229897011948	916.551301643576	97.856954893877	597.387851163767	824.963563971970	40.409975971222	634.453175352519	1033.292043962842	38.678842500705	627.465583731335	1104.465503690602	37.647204234378	403.018294038754	1180.352776576413	36.478382687878	324.408455265342	1260.071082424816	100.182700361297	351.683982952651	1390.134813707000	53.149575468611	327.725083623989	887.648938888707	1112.949621428809	225.255880808750	814.222873217558	869.130317142345	281.749589367682	1284.590479663562	1134.089533800507	759.860013889332	1508.837678134479	1186.707534840350	652.551294134925	
128	57.645857142857	885.078304977074	1002.344829829809	510.282906352050	1056.732780823213	1423.172141784025	320.186294768259	1175.196830876739	1348.312916230162	466.676278066536	1114.275787022237	1424.507662548996	647.642101720814	1073.872600913885	1481.865062667579	471.532722395346	1112.136630742174	927.032675296784	613.236843292078	1085.726044707947	946.747936584212	340.783655588703	1102.500890981319	713.231242918309	587.821844966466	994.459620283021	624.402272818236	651.513883472428	1051.154684226838	554.605018275289	571.700692120197	1026.140821516655	467.057626873104	575.638817260810	1157.887970190337	762.309549301047	375.997571932828	1103.286884061126	634.133937216512	302.902926248611	1205.018645566146	574.766853698265	366.659529318893	1224.148071473747	504.245648506176	367.710134491363	1204.606251800887	429.922711188362	356.925439513096	1129.395607823883	305.652013976645	305.981502537504	1202.877610640782	200.418737053147	366.542685879167	979.027350580688	387.860270322942	584.729575572421	886.850398107418	304.075304490266	650.428083886561	901.692919306960	202.012118713801	587.256390523786	736.366177176227	55.849291677058	560.660967962696	910.465717753732	98.274059705807	597.722259139374	818.210365122057	41.679815517885	634.595317783427	1026.376999005840	38.334025559031	627.534752717005	1097.007094724511	37.843790242145	403.227662523000	1172.900200927377	36.069280145304	324.527234751685	1253.616190265062	98.496726773989	352.230604754243	1383.303074305479	49.480702954041	328.079243567433	888.272086768818	1113.212635837642	223.708719053886	814.085498303719	869.695614043947	280.978266728891	1283.090513858725	1131.915190440378	758.176598015364	1506.179000325187	1189.626740052670	651.376158309745	
